<svg xmlns="http://www.w3.org/2000/svg" xmlns:xlink="http://www.w3.org/1999/xlink" width="849" zoomAndPan="magnify" viewBox="0 0 636.75 179.999997" height="240" preserveAspectRatio="xMidYMid meet" version="1.0"><defs><g/><clipPath id="a218cafc98"><path d="M 3 26.375 L 130 26.375 L 130 153 L 3 153 Z M 3 26.375 " clip-rule="nonzero"/></clipPath></defs><g clip-path="url(#a218cafc98)"><path fill="#0ac18e" d="M 129.074219 89.433594 C 129.074219 91.496094 128.972656 93.554688 128.769531 95.605469 C 128.566406 97.660156 128.265625 99.695312 127.863281 101.71875 C 127.460938 103.742188 126.960938 105.738281 126.363281 107.710938 C 125.765625 109.683594 125.070312 111.625 124.28125 113.53125 C 123.492188 115.433594 122.613281 117.296875 121.640625 119.117188 C 120.667969 120.933594 119.609375 122.699219 118.464844 124.414062 C 117.320312 126.128906 116.09375 127.785156 114.785156 129.378906 C 113.480469 130.972656 112.097656 132.5 110.640625 133.957031 C 109.183594 135.414062 107.65625 136.796875 106.0625 138.105469 C 104.46875 139.414062 102.816406 140.640625 101.101562 141.785156 C 99.386719 142.933594 97.621094 143.992188 95.804688 144.964844 C 93.988281 145.9375 92.125 146.816406 90.222656 147.605469 C 88.316406 148.394531 86.378906 149.089844 84.40625 149.6875 C 82.433594 150.285156 80.4375 150.785156 78.414062 151.1875 C 76.394531 151.589844 74.355469 151.894531 72.304688 152.09375 C 70.253906 152.296875 68.199219 152.398438 66.136719 152.398438 C 64.078125 152.398438 62.019531 152.296875 59.96875 152.09375 C 57.917969 151.894531 55.882812 151.589844 53.859375 151.1875 C 51.835938 150.785156 49.839844 150.285156 47.867188 149.6875 C 45.894531 149.089844 43.957031 148.394531 42.054688 147.605469 C 40.148438 146.816406 38.289062 145.9375 36.46875 144.964844 C 34.652344 143.992188 32.886719 142.933594 31.171875 141.785156 C 29.457031 140.640625 27.804688 139.414062 26.210938 138.105469 C 24.617188 136.796875 23.09375 135.414062 21.636719 133.957031 C 20.179688 132.5 18.796875 130.972656 17.488281 129.378906 C 16.179688 127.785156 14.953125 126.128906 13.808594 124.414062 C 12.664062 122.699219 11.605469 120.933594 10.632812 119.117188 C 9.660156 117.296875 8.78125 115.433594 7.992188 113.53125 C 7.203125 111.625 6.511719 109.683594 5.914062 107.710938 C 5.3125 105.738281 4.8125 103.742188 4.410156 101.71875 C 4.007812 99.695312 3.707031 97.660156 3.503906 95.605469 C 3.304688 93.554688 3.203125 91.496094 3.203125 89.433594 C 3.203125 87.371094 3.304688 85.316406 3.503906 83.261719 C 3.707031 81.210938 4.007812 79.171875 4.410156 77.152344 C 4.8125 75.128906 5.3125 73.128906 5.914062 71.15625 C 6.511719 69.183594 7.203125 67.246094 7.992188 65.339844 C 8.78125 63.433594 9.660156 61.574219 10.632812 59.753906 C 11.605469 57.933594 12.664062 56.167969 13.808594 54.453125 C 14.953125 52.738281 16.179688 51.085938 17.488281 49.492188 C 18.796875 47.898438 20.179688 46.371094 21.636719 44.914062 C 23.09375 43.453125 24.617188 42.070312 26.210938 40.761719 C 27.804688 39.453125 29.457031 38.226562 31.171875 37.082031 C 32.886719 35.9375 34.652344 34.878906 36.46875 33.90625 C 38.289062 32.933594 40.148438 32.054688 42.054688 31.265625 C 43.957031 30.476562 45.894531 29.78125 47.867188 29.183594 C 49.839844 28.582031 51.835938 28.082031 53.859375 27.679688 C 55.882812 27.277344 57.917969 26.976562 59.96875 26.773438 C 62.019531 26.570312 64.078125 26.472656 66.136719 26.472656 C 68.199219 26.472656 70.253906 26.570312 72.304688 26.773438 C 74.355469 26.976562 76.394531 27.277344 78.414062 27.679688 C 80.4375 28.082031 82.433594 28.582031 84.40625 29.183594 C 86.378906 29.78125 88.316406 30.476562 90.222656 31.265625 C 92.125 32.054688 93.988281 32.933594 95.804688 33.90625 C 97.621094 34.878906 99.386719 35.9375 101.101562 37.082031 C 102.816406 38.226562 104.46875 39.453125 106.0625 40.761719 C 107.65625 42.070312 109.183594 43.453125 110.640625 44.914062 C 112.097656 46.371094 113.480469 47.898438 114.785156 49.492188 C 116.09375 51.085938 117.320312 52.738281 118.464844 54.453125 C 119.609375 56.167969 120.667969 57.933594 121.640625 59.753906 C 122.613281 61.574219 123.492188 63.433594 124.28125 65.339844 C 125.070312 67.246094 125.765625 69.183594 126.363281 71.15625 C 126.960938 73.128906 127.460938 75.128906 127.863281 77.152344 C 128.265625 79.171875 128.566406 81.210938 128.769531 83.261719 C 128.972656 85.316406 129.074219 87.371094 129.074219 89.433594 Z M 129.074219 89.433594 " fill-opacity="1" fill-rule="nonzero"/></g><path fill="#ffffff" d="M 95.65625 92.050781 L 95.621094 91.984375 L 95.613281 91.976562 C 95.59375 91.910156 95.578125 91.839844 95.554688 91.769531 L 95.550781 91.765625 L 95.546875 91.757812 L 95.542969 91.753906 L 95.542969 91.75 L 95.539062 91.742188 L 95.535156 91.738281 L 95.53125 91.726562 C 94.773438 89.199219 93.371094 87.101562 91.324219 85.433594 L 91.324219 85.429688 C 91.265625 85.382812 91.203125 85.332031 91.140625 85.289062 L 91.0625 85.226562 L 91 85.183594 L 90.976562 85.160156 L 90.917969 85.121094 L 90.894531 85.101562 L 90.839844 85.0625 L 90.8125 85.039062 L 90.753906 84.996094 L 90.722656 84.976562 L 90.664062 84.929688 L 90.632812 84.914062 L 90.570312 84.871094 L 90.539062 84.851562 L 90.5 84.796875 L 90.464844 84.769531 L 90.402344 84.730469 L 90.371094 84.707031 L 90.304688 84.664062 L 90.273438 84.640625 L 90.207031 84.597656 L 90.175781 84.574219 L 90.105469 84.523438 L 90.074219 84.5 L 90 84.457031 L 89.859375 84.363281 L 89.789062 84.320312 L 89.753906 84.296875 L 89.679688 84.25 L 89.640625 84.230469 L 89.570312 84.183594 L 89.527344 84.164062 L 89.449219 84.121094 L 89.410156 84.101562 L 89.332031 84.054688 L 89.289062 84.03125 L 89.210938 83.984375 L 89.171875 83.964844 L 89.089844 83.917969 L 89.046875 83.890625 L 88.964844 83.84375 L 88.921875 83.816406 L 88.835938 83.773438 L 88.792969 83.746094 L 88.707031 83.703125 L 88.648438 83.671875 L 88.644531 83.664062 C 88.601562 83.640625 88.558594 83.621094 88.515625 83.59375 C 86.703125 82.664062 84.789062 82.058594 82.769531 81.777344 C 83.332031 81.171875 83.847656 80.527344 84.308594 79.84375 L 84.382812 79.734375 L 84.390625 79.730469 L 84.421875 79.675781 L 84.492188 79.570312 L 84.535156 79.496094 L 84.558594 79.464844 L 84.605469 79.390625 L 84.628906 79.359375 L 84.671875 79.285156 L 84.765625 79.144531 L 84.804688 79.074219 L 84.828125 79.039062 L 84.867188 78.96875 L 84.886719 78.9375 L 84.925781 78.867188 L 84.945312 78.839844 L 84.984375 78.769531 L 85.035156 78.667969 L 85.054688 78.640625 L 85.085938 78.570312 L 85.105469 78.539062 L 85.140625 78.472656 L 85.15625 78.441406 L 85.195312 78.378906 L 85.210938 78.351562 L 85.25 78.289062 L 85.265625 78.257812 L 85.300781 78.199219 L 85.316406 78.167969 L 85.347656 78.109375 L 85.363281 78.082031 L 85.394531 78.023438 L 85.40625 77.992188 L 85.4375 77.933594 L 85.449219 77.90625 L 85.480469 77.847656 L 85.496094 77.820312 L 85.519531 77.765625 L 85.535156 77.738281 L 85.558594 77.679688 L 85.570312 77.652344 L 85.597656 77.597656 L 85.609375 77.570312 L 85.640625 77.503906 L 85.679688 77.421875 C 85.707031 77.355469 85.730469 77.292969 85.757812 77.230469 L 85.761719 77.226562 C 86.644531 75.050781 86.839844 72.816406 86.34375 70.519531 L 86.339844 70.515625 L 86.335938 70.503906 L 86.332031 70.496094 L 86.324219 70.488281 L 86.324219 70.480469 L 86.320312 70.476562 L 86.316406 70.46875 C 86.304688 70.40625 86.289062 70.34375 86.273438 70.285156 L 86.273438 70.273438 L 86.269531 70.265625 L 86.265625 70.261719 L 86.265625 70.253906 L 86.265625 70.261719 L 86.242188 70.210938 C 86.222656 70.125 86.203125 70.035156 86.175781 69.945312 C 86.15625 69.859375 86.128906 69.769531 86.101562 69.683594 L 86.070312 69.625 L 86.066406 69.613281 C 86.046875 69.554688 86.027344 69.492188 86.011719 69.433594 L 86.007812 69.429688 L 86.003906 69.421875 L 86 69.417969 L 86 69.410156 L 85.996094 69.40625 L 85.992188 69.398438 L 85.988281 69.394531 C 85.320312 67.144531 84.070312 65.277344 82.25 63.796875 L 82.246094 63.789062 C 82.195312 63.75 82.140625 63.707031 82.089844 63.664062 L 82.019531 63.613281 L 81.964844 63.574219 L 81.9375 63.550781 L 81.890625 63.515625 L 81.863281 63.492188 L 81.816406 63.457031 L 81.789062 63.433594 L 81.738281 63.402344 L 81.710938 63.378906 L 81.574219 63.28125 L 81.546875 63.257812 L 81.492188 63.21875 L 81.460938 63.199219 L 81.40625 63.160156 L 81.375 63.140625 L 81.316406 63.101562 L 81.285156 63.085938 L 81.226562 63.046875 L 81.195312 63.027344 L 81.132812 62.992188 L 81.101562 62.972656 L 81.039062 62.9375 L 81.007812 62.917969 L 80.945312 62.882812 L 80.914062 62.863281 L 80.851562 62.820312 L 80.820312 62.800781 L 80.753906 62.761719 L 80.726562 62.742188 L 80.65625 62.703125 L 80.625 62.683594 L 80.554688 62.644531 L 80.519531 62.621094 L 80.449219 62.582031 L 80.414062 62.558594 L 80.347656 62.519531 L 80.3125 62.496094 L 80.238281 62.449219 L 80.199219 62.429688 L 80.125 62.382812 L 80.085938 62.363281 L 80.007812 62.320312 L 79.96875 62.296875 L 79.890625 62.253906 L 79.835938 62.230469 L 79.832031 62.222656 L 79.714844 62.160156 C 76.277344 60.375 71.910156 59.835938 67.515625 60.964844 L 66.375 61.257812 L 63.484375 49.996094 L 56.785156 51.714844 L 59.667969 62.929688 L 54.308594 64.3125 L 51.425781 53.132812 L 44.726562 54.851562 L 47.605469 66.066406 L 33.792969 69.621094 L 35.632812 76.769531 L 41.199219 75.339844 C 41.640625 75.226562 42.085938 75.199219 42.539062 75.261719 C 42.992188 75.328125 43.414062 75.476562 43.808594 75.707031 C 44.203125 75.941406 44.535156 76.238281 44.808594 76.605469 C 45.085938 76.96875 45.277344 77.371094 45.394531 77.816406 L 45.394531 77.824219 L 53.121094 107.898438 C 53.195312 108.191406 53.210938 108.492188 53.167969 108.792969 C 53.125 109.09375 53.027344 109.375 52.871094 109.640625 C 52.71875 109.902344 52.519531 110.125 52.273438 110.308594 C 52.03125 110.492188 51.761719 110.621094 51.46875 110.699219 L 46.589844 111.953125 L 46.875 120.453125 L 60.671875 116.90625 L 63.589844 128.101562 L 70.285156 126.378906 L 67.402344 115.15625 L 72.761719 113.78125 L 75.644531 125.003906 L 82.339844 123.28125 L 79.445312 112.015625 C 80.582031 111.71875 81.558594 111.464844 82.234375 111.289062 C 87.183594 110.015625 91.1875 107.113281 93.609375 103.492188 L 93.691406 103.371094 L 93.695312 103.367188 L 93.738281 103.3125 L 93.789062 103.226562 L 93.816406 103.183594 L 93.867188 103.097656 L 93.894531 103.058594 L 93.941406 102.976562 L 93.96875 102.933594 L 94.015625 102.851562 L 94.035156 102.8125 L 94.082031 102.730469 L 94.105469 102.691406 L 94.152344 102.609375 L 94.171875 102.570312 L 94.214844 102.492188 L 94.234375 102.453125 L 94.277344 102.375 L 94.300781 102.335938 L 94.34375 102.261719 L 94.367188 102.222656 L 94.410156 102.152344 L 94.429688 102.113281 L 94.46875 102.042969 L 94.492188 102 L 94.53125 101.933594 L 94.550781 101.894531 L 94.589844 101.824219 L 94.605469 101.785156 L 94.644531 101.714844 L 94.660156 101.679688 L 94.695312 101.613281 L 94.714844 101.582031 L 94.746094 101.515625 L 94.765625 101.484375 L 94.800781 101.417969 L 94.816406 101.386719 L 94.851562 101.320312 L 94.871094 101.289062 L 94.902344 101.21875 L 94.921875 101.1875 L 94.957031 101.121094 L 95.050781 100.933594 L 95.0625 100.90625 L 95.09375 100.832031 L 95.136719 100.738281 C 95.167969 100.667969 95.199219 100.601562 95.226562 100.53125 L 95.226562 100.523438 C 96.21875 98.074219 96.4375 95.558594 95.882812 92.976562 L 95.875 92.96875 L 95.875 92.960938 L 95.871094 92.957031 L 95.867188 92.949219 L 95.863281 92.945312 L 95.863281 92.941406 L 95.859375 92.933594 C 95.84375 92.867188 95.828125 92.796875 95.8125 92.730469 L 95.8125 92.714844 L 95.808594 92.710938 L 95.804688 92.703125 L 95.800781 92.699219 L 95.800781 92.691406 L 95.792969 92.683594 L 95.789062 92.675781 L 95.789062 92.671875 L 95.785156 92.664062 L 95.777344 92.65625 L 95.777344 92.648438 L 95.773438 92.644531 L 95.761719 92.621094 C 95.734375 92.523438 95.714844 92.421875 95.6875 92.328125 C 95.671875 92.234375 95.660156 92.144531 95.65625 92.050781 Z M 56.300781 71.933594 C 57.445312 71.636719 62.167969 70.453125 63.726562 70.046875 C 66.203125 69.410156 68.644531 69.65625 70.550781 70.578125 L 70.613281 70.605469 L 70.640625 70.617188 L 70.679688 70.640625 L 70.699219 70.648438 L 70.738281 70.671875 L 70.757812 70.679688 L 70.796875 70.703125 L 70.816406 70.710938 L 70.855469 70.734375 L 70.875 70.742188 L 70.933594 70.777344 L 70.972656 70.796875 L 70.992188 70.808594 L 71.03125 70.828125 L 71.050781 70.839844 L 71.089844 70.859375 L 71.109375 70.871094 L 71.148438 70.890625 L 71.167969 70.902344 L 71.203125 70.925781 L 71.222656 70.9375 L 71.257812 70.960938 L 71.277344 70.96875 L 71.308594 70.992188 L 71.328125 71.003906 L 71.359375 71.023438 L 71.378906 71.03125 L 71.410156 71.050781 L 71.429688 71.0625 L 71.460938 71.082031 L 71.480469 71.089844 L 71.511719 71.109375 L 71.53125 71.121094 L 71.5625 71.136719 L 71.578125 71.152344 L 71.605469 71.171875 L 71.617188 71.179688 L 71.648438 71.195312 L 71.660156 71.203125 L 71.691406 71.222656 L 71.703125 71.230469 L 71.734375 71.25 L 71.746094 71.257812 L 71.769531 71.277344 L 71.78125 71.285156 L 71.8125 71.304688 L 71.855469 71.332031 C 71.886719 71.347656 71.914062 71.375 71.945312 71.394531 C 72.945312 72.148438 73.628906 73.128906 73.992188 74.328125 L 74 74.34375 C 74.011719 74.375 74.023438 74.410156 74.03125 74.441406 L 74.035156 74.445312 L 74.050781 74.476562 C 74.066406 74.527344 74.078125 74.566406 74.09375 74.617188 C 74.105469 74.667969 74.113281 74.71875 74.117188 74.769531 L 74.136719 74.804688 L 74.140625 74.808594 C 74.144531 74.84375 74.152344 74.875 74.164062 74.90625 L 74.171875 74.921875 C 74.429688 76.148438 74.304688 77.335938 73.792969 78.480469 L 73.746094 78.582031 L 73.699219 78.675781 L 73.6875 78.703125 L 73.683594 78.71875 L 73.664062 78.75 L 73.660156 78.769531 L 73.640625 78.800781 L 73.636719 78.816406 L 73.617188 78.847656 L 73.613281 78.863281 L 73.59375 78.894531 L 73.589844 78.910156 L 73.570312 78.941406 L 73.566406 78.957031 L 73.546875 78.988281 L 73.535156 79.007812 L 73.519531 79.039062 L 73.507812 79.058594 L 73.488281 79.089844 L 73.480469 79.109375 L 73.460938 79.140625 L 73.449219 79.160156 L 73.425781 79.195312 L 73.414062 79.214844 L 73.390625 79.246094 L 73.382812 79.265625 L 73.359375 79.300781 L 73.347656 79.320312 L 73.324219 79.355469 L 73.3125 79.375 L 73.289062 79.40625 L 73.277344 79.425781 L 73.253906 79.460938 L 73.246094 79.480469 L 73.222656 79.515625 L 73.210938 79.535156 L 73.1875 79.566406 L 73.175781 79.585938 L 73.148438 79.625 L 73.136719 79.644531 L 73.109375 79.679688 L 73.097656 79.699219 L 73.066406 79.734375 L 73.058594 79.753906 L 73.027344 79.792969 L 73.007812 79.816406 L 72.96875 79.875 C 71.734375 81.601562 69.71875 82.996094 67.242188 83.628906 C 65.679688 84.03125 60.964844 85.265625 59.824219 85.558594 Z M 82.480469 94.988281 L 82.5 95.019531 L 82.503906 95.027344 C 82.507812 95.066406 82.519531 95.09375 82.523438 95.132812 L 82.527344 95.136719 L 82.53125 95.144531 L 82.535156 95.148438 L 82.535156 95.15625 C 82.808594 96.511719 82.628906 97.808594 82 99.039062 L 81.9375 99.148438 L 81.910156 99.199219 L 81.886719 99.238281 L 81.878906 99.257812 L 81.859375 99.289062 L 81.847656 99.308594 L 81.832031 99.339844 L 81.820312 99.359375 L 81.796875 99.394531 L 81.785156 99.414062 L 81.761719 99.445312 L 81.75 99.464844 L 81.726562 99.5 L 81.71875 99.519531 L 81.695312 99.554688 L 81.683594 99.574219 L 81.660156 99.605469 L 81.648438 99.625 L 81.625 99.660156 L 81.613281 99.679688 L 81.589844 99.714844 L 81.582031 99.730469 L 81.558594 99.765625 L 81.546875 99.785156 L 81.523438 99.820312 L 81.511719 99.839844 L 81.484375 99.875 L 81.472656 99.894531 L 81.445312 99.933594 L 81.433594 99.953125 L 81.40625 99.992188 L 81.398438 100.011719 L 81.371094 100.054688 L 81.359375 100.074219 L 81.332031 100.117188 L 81.316406 100.140625 L 81.292969 100.183594 L 81.277344 100.203125 L 81.242188 100.25 L 81.226562 100.273438 L 81.195312 100.316406 L 81.179688 100.339844 L 81.148438 100.382812 L 81.085938 100.476562 L 81.054688 100.519531 L 81.027344 100.546875 L 80.976562 100.609375 C 79.480469 102.519531 77.066406 104.09375 74.136719 104.847656 C 72.289062 105.324219 66.703125 106.785156 65.34375 107.132812 L 61.542969 92.332031 C 62.902344 91.980469 68.5 90.574219 70.347656 90.097656 C 73.277344 89.34375 76.15625 89.558594 78.378906 90.507812 L 78.453125 90.539062 L 78.488281 90.554688 L 78.542969 90.574219 L 78.566406 90.582031 L 78.613281 90.605469 L 78.636719 90.613281 L 78.6875 90.636719 L 78.710938 90.644531 L 78.757812 90.667969 L 78.777344 90.675781 L 78.824219 90.699219 L 78.84375 90.710938 L 78.890625 90.734375 L 78.910156 90.746094 L 78.960938 90.769531 L 78.980469 90.777344 L 79.019531 90.800781 L 79.039062 90.808594 L 79.078125 90.832031 L 79.097656 90.839844 L 79.15625 90.875 L 79.195312 90.894531 L 79.214844 90.90625 L 79.253906 90.925781 L 79.273438 90.9375 L 79.3125 90.957031 L 79.332031 90.96875 L 79.371094 90.988281 L 79.390625 91 L 79.429688 91.019531 L 79.449219 91.03125 L 79.488281 91.050781 L 79.507812 91.0625 L 79.539062 91.085938 L 79.558594 91.097656 L 79.59375 91.121094 L 79.613281 91.132812 L 79.648438 91.15625 L 79.667969 91.164062 L 79.699219 91.1875 L 79.71875 91.199219 L 79.753906 91.222656 L 79.773438 91.234375 L 79.804688 91.253906 L 79.824219 91.261719 L 79.855469 91.285156 L 79.902344 91.316406 C 79.9375 91.339844 79.976562 91.363281 80.007812 91.386719 C 81.152344 92.164062 81.933594 93.210938 82.351562 94.53125 L 82.363281 94.554688 C 82.375 94.589844 82.382812 94.617188 82.394531 94.652344 L 82.398438 94.660156 L 82.417969 94.691406 C 82.429688 94.742188 82.441406 94.789062 82.457031 94.84375 C 82.484375 94.855469 82.488281 94.917969 82.480469 94.992188 Z M 82.480469 94.988281 " fill-opacity="1" fill-rule="nonzero"/><g fill="#0cc18e" fill-opacity="1"><g transform="translate(137.230613, 126.68991)"><g><path d="M 42.03125 1.109375 C 34.945312 1.109375 28.703125 -0.363281 23.296875 -3.3125 C 17.898438 -6.257812 13.675781 -10.6875 10.625 -16.59375 C 7.570312 -22.5 6.046875 -29.785156 6.046875 -38.453125 C 6.046875 -47.109375 7.570312 -54.390625 10.625 -60.296875 C 13.675781 -66.210938 17.898438 -70.640625 23.296875 -73.578125 C 28.703125 -76.523438 34.945312 -78 42.03125 -78 C 49.425781 -78 55.707031 -76.550781 60.875 -73.65625 C 66.050781 -70.769531 69.742188 -66.363281 71.953125 -60.4375 L 60.859375 -53.65625 L 59.546875 -53.703125 C 57.890625 -57.703125 55.648438 -60.566406 52.828125 -62.296875 C 50.003906 -64.035156 46.40625 -64.90625 42.03125 -64.90625 C 35.644531 -64.90625 30.660156 -62.789062 27.078125 -58.5625 C 23.503906 -54.34375 21.71875 -47.640625 21.71875 -38.453125 C 21.71875 -29.296875 23.503906 -22.601562 27.078125 -18.375 C 30.660156 -14.15625 35.644531 -12.046875 42.03125 -12.046875 C 52.019531 -12.046875 58.132812 -16.898438 60.375 -26.609375 L 61.703125 -26.609375 L 72.90625 -20.78125 C 70.800781 -13.476562 67.203125 -8.003906 62.109375 -4.359375 C 57.023438 -0.710938 50.332031 1.109375 42.03125 1.109375 Z M 42.03125 1.109375 "/></g></g><g transform="translate(212.655315, 126.68991)"><g><path d="M 22.609375 1.109375 C 18.898438 1.109375 15.675781 0.425781 12.9375 -0.9375 C 10.207031 -2.3125 8.101562 -4.320312 6.625 -6.96875 C 5.15625 -9.613281 4.421875 -12.796875 4.421875 -16.515625 C 4.421875 -19.953125 5.15625 -22.835938 6.625 -25.171875 C 8.101562 -27.503906 10.382812 -29.414062 13.46875 -30.90625 C 16.550781 -32.394531 20.582031 -33.539062 25.5625 -34.34375 C 29.03125 -34.90625 31.664062 -35.519531 33.46875 -36.1875 C 35.28125 -36.851562 36.5 -37.601562 37.125 -38.4375 C 37.757812 -39.28125 38.078125 -40.351562 38.078125 -41.65625 C 38.078125 -43.507812 37.425781 -44.925781 36.125 -45.90625 C 34.832031 -46.894531 32.679688 -47.390625 29.671875 -47.390625 C 26.441406 -47.390625 23.367188 -46.671875 20.453125 -45.234375 C 17.546875 -43.796875 15.023438 -41.898438 12.890625 -39.546875 L 11.828125 -39.546875 L 5.734375 -48.75 C 8.679688 -52.019531 12.273438 -54.566406 16.515625 -56.390625 C 20.753906 -58.210938 25.382812 -59.125 30.40625 -59.125 C 38.082031 -59.125 43.640625 -57.492188 47.078125 -54.234375 C 50.515625 -50.972656 52.234375 -46.34375 52.234375 -40.34375 L 52.234375 -15.140625 C 52.234375 -12.546875 53.367188 -11.25 55.640625 -11.25 C 56.523438 -11.25 57.382812 -11.410156 58.21875 -11.734375 L 58.96875 -11.515625 L 60.015625 -1.375 C 59.203125 -0.84375 58.078125 -0.410156 56.640625 -0.078125 C 55.203125 0.253906 53.625 0.421875 51.90625 0.421875 C 48.4375 0.421875 45.726562 -0.242188 43.78125 -1.578125 C 41.84375 -2.910156 40.453125 -5 39.609375 -7.84375 L 38.5 -7.9375 C 35.65625 -1.90625 30.359375 1.109375 22.609375 1.109375 Z M 27.25 -9.78125 C 30.613281 -9.78125 33.300781 -10.910156 35.3125 -13.171875 C 37.332031 -15.429688 38.34375 -18.578125 38.34375 -22.609375 L 38.34375 -28.5 L 37.34375 -28.71875 C 36.46875 -28.019531 35.316406 -27.429688 33.890625 -26.953125 C 32.472656 -26.484375 30.429688 -26.019531 27.765625 -25.5625 C 24.609375 -25.03125 22.335938 -24.125 20.953125 -22.84375 C 19.566406 -21.570312 18.875 -19.757812 18.875 -17.40625 C 18.875 -14.914062 19.609375 -13.019531 21.078125 -11.71875 C 22.554688 -10.425781 24.613281 -9.78125 27.25 -9.78125 Z M 27.25 -9.78125 "/></g></g><g transform="translate(273.826115, 126.68991)"><g><path d="M 27.140625 1.109375 C 23.179688 1.109375 19.550781 0.644531 16.25 -0.28125 C 12.957031 -1.21875 10.144531 -2.5 7.8125 -4.125 C 5.476562 -5.757812 3.75 -7.628906 2.625 -9.734375 L 10.734375 -18.46875 L 11.828125 -18.46875 C 13.765625 -15.863281 16.046875 -13.910156 18.671875 -12.609375 C 21.296875 -11.316406 24.15625 -10.671875 27.25 -10.671875 C 30.082031 -10.671875 32.21875 -11.179688 33.65625 -12.203125 C 35.09375 -13.222656 35.8125 -14.675781 35.8125 -16.5625 C 35.8125 -18.039062 35.296875 -19.28125 34.265625 -20.28125 C 33.234375 -21.28125 31.5625 -22.054688 29.25 -22.609375 L 21.5625 -24.453125 C 15.8125 -25.828125 11.613281 -27.925781 8.96875 -30.75 C 6.320312 -33.570312 5 -37.15625 5 -41.5 C 5 -45.113281 5.914062 -48.25 7.75 -50.90625 C 9.59375 -53.570312 12.1875 -55.609375 15.53125 -57.015625 C 18.882812 -58.421875 22.789062 -59.125 27.25 -59.125 C 32.46875 -59.125 36.796875 -58.367188 40.234375 -56.859375 C 43.671875 -55.347656 46.351562 -53.332031 48.28125 -50.8125 L 40.5 -42.390625 L 39.453125 -42.390625 C 37.835938 -44.210938 36.019531 -45.546875 34 -46.390625 C 31.988281 -47.234375 29.738281 -47.65625 27.25 -47.65625 C 21.5 -47.65625 18.625 -45.863281 18.625 -42.28125 C 18.625 -40.78125 19.15625 -39.554688 20.21875 -38.609375 C 21.289062 -37.660156 23.175781 -36.890625 25.875 -36.296875 L 33.03125 -34.71875 C 38.925781 -33.457031 43.226562 -31.429688 45.9375 -28.640625 C 48.65625 -25.847656 50.015625 -22.101562 50.015625 -17.40625 C 50.015625 -13.726562 49.101562 -10.484375 47.28125 -7.671875 C 45.457031 -4.867188 42.828125 -2.703125 39.390625 -1.171875 C 35.953125 0.347656 31.867188 1.109375 27.140625 1.109375 Z M 27.140625 1.109375 "/></g></g><g transform="translate(327.317693, 126.68991)"><g><path d="M 8.359375 0 L 8.359375 -81.3125 L 22.9375 -81.3125 L 22.9375 -50.4375 L 24.03125 -50.234375 C 25.96875 -53.066406 28.335938 -55.253906 31.140625 -56.796875 C 33.941406 -58.347656 37.320312 -59.125 41.28125 -59.125 C 54.082031 -59.125 60.484375 -51.863281 60.484375 -37.34375 L 60.484375 0 L 45.921875 0 L 45.921875 -35.5 C 45.921875 -39.46875 45.128906 -42.34375 43.546875 -44.125 C 41.972656 -45.914062 39.519531 -46.8125 36.1875 -46.8125 C 32.113281 -46.8125 28.882812 -45.453125 26.5 -42.734375 C 24.125 -40.015625 22.9375 -35.78125 22.9375 -30.03125 L 22.9375 0 Z M 8.359375 0 "/></g></g></g><g fill="#ffffff" fill-opacity="1"><g transform="translate(395.273561, 126.68991)"><g><path d="M 37.34375 1.109375 C 30.925781 1.109375 25.375 -0.351562 20.6875 -3.28125 C 16.007812 -6.207031 12.398438 -10.625 9.859375 -16.53125 C 7.316406 -22.445312 6.046875 -29.753906 6.046875 -38.453125 C 6.046875 -47.210938 7.570312 -54.546875 10.625 -60.453125 C 13.675781 -66.367188 17.910156 -70.769531 23.328125 -73.65625 C 28.742188 -76.550781 35.03125 -78 42.1875 -78 C 49.550781 -78 55.828125 -76.628906 61.015625 -73.890625 C 66.203125 -71.160156 69.847656 -67.097656 71.953125 -61.703125 L 60.859375 -54.96875 L 59.546875 -55.015625 C 57.960938 -58.453125 55.738281 -60.957031 52.875 -62.53125 C 50.019531 -64.113281 46.457031 -64.90625 42.1875 -64.90625 C 35.550781 -64.90625 30.476562 -62.804688 26.96875 -58.609375 C 23.46875 -54.421875 21.71875 -47.703125 21.71875 -38.453125 C 21.71875 -29.160156 23.359375 -22.410156 26.640625 -18.203125 C 29.921875 -13.992188 34.769531 -11.890625 41.1875 -11.890625 C 46.726562 -11.890625 50.8125 -13.132812 53.4375 -15.625 C 56.070312 -18.113281 57.390625 -21.828125 57.390625 -26.765625 L 57.390625 -30.078125 L 39.1875 -30.078125 L 39.1875 -42.453125 L 72.484375 -42.453125 L 72.484375 0 L 57.96875 0 L 57.96875 -10.3125 L 56.859375 -10.46875 C 55.273438 -6.78125 52.878906 -3.925781 49.671875 -1.90625 C 46.460938 0.101562 42.351562 1.109375 37.34375 1.109375 Z M 37.34375 1.109375 "/></g></g><g transform="translate(475.484629, 126.68991)"><g><path d="M 39.703125 -76.890625 C 45.210938 -76.890625 49.921875 -75.878906 53.828125 -73.859375 C 57.742188 -71.847656 60.695312 -69.023438 62.6875 -65.390625 C 64.6875 -61.765625 65.6875 -57.550781 65.6875 -52.75 C 65.6875 -47.945312 64.6875 -43.738281 62.6875 -40.125 C 60.695312 -36.519531 57.742188 -33.707031 53.828125 -31.6875 C 49.921875 -29.675781 45.210938 -28.671875 39.703125 -28.671875 L 25.1875 -28.671875 L 25.1875 0 L 10 0 L 10 -76.890625 Z M 37.71875 -40.703125 C 46.164062 -40.703125 50.390625 -44.71875 50.390625 -52.75 C 50.390625 -60.820312 46.164062 -64.859375 37.71875 -64.859375 L 25.1875 -64.859375 L 25.1875 -40.703125 Z M 37.71875 -40.703125 "/></g></g><g transform="translate(545.754784, 126.68991)"><g><path d="M 61.640625 -76.890625 L 61.640625 -64.109375 L 39.453125 -64.109375 L 39.453125 0 L 24.296875 0 L 24.296875 -64.109375 L 2.109375 -64.109375 L 2.109375 -76.890625 Z M 61.640625 -76.890625 "/></g></g></g></svg>